<?xml version="1.0" encoding="UTF-8"?>
<svg id="Capa_2" data-name="Capa 2" xmlns="http://www.w3.org/2000/svg" viewBox="0 0 442.51 163.85">
  <defs>
    <style>
      .cls-1 {
        fill: #1d1d1b;
      }
    </style>
  </defs>
  <g id="Capa_1-2" data-name="Capa 1">
    <path class="cls-1" d="m133.2,13.15C91.63,34.93,48.27,53.03,3.55,67.27c-3.86,1.23-4.54,5.41-2.21,8.36,26.6,33.5,59.03,62.07,95.52,84.39,5.51,3.37,10.53-5.28,5.05-8.63-33.59-20.54-63.48-46.51-88.59-76.78,43.01-14.13,84.82-31.81,124.92-52.83,5.7-2.99.65-11.62-5.05-8.63Z"/>
    <path class="cls-1" d="m262.71,18.83c-26.87,48.35-66.42,88.34-92.04,137.46-2.97,5.7,5.65,10.76,8.63,5.05,25.62-49.13,65.18-89.11,92.04-137.46,3.13-5.63-5.51-10.68-8.63-5.05Z"/>
    <path class="cls-1" d="m440.08,91.9c-38.8-27.37-75.47-57.63-109.76-90.48-4.65-4.45-11.73,2.61-7.07,7.07,32.71,31.34,67.61,60.32,104.38,86.77-17.03,7.09-35.3,10.74-52.51,17.45-19.17,7.48-37.43,17-54.52,28.47-5.32,3.57-.32,12.23,5.05,8.63,17.35-11.64,35.93-21.41,55.5-28.75,19.56-7.33,40.13-11.21,58.94-20.53,3.64-1.8,2.82-6.64,0-8.63Z"/>
  </g>
</svg>