<?xml version="1.0" encoding="UTF-8"?>
<svg id="Capa_2" data-name="Capa 2" xmlns="http://www.w3.org/2000/svg" viewBox="0 0 449.31 449.88">
  <defs>
    <style>
      .cls-1 {
        fill: none;
        stroke: #000;
        stroke-miterlimit: 10;
        stroke-width: 12px;
      }

      .cls-2 {
        fill: #ededed;
      }
    </style>
  </defs>
  <g id="Capa_1-2" data-name="Capa 1">
    <path class="cls-2" d="m376.64,390.59c44.67-41.11,72.67-100.11,72.67-165.65C449.31,100.71,348.73,0,224.65,0S0,100.71,0,224.94s100.58,224.94,224.65,224.94c56.36,0,107.88-20.78,147.32-55.11"/>
    <path class="cls-2" d="m371.97,394.77c1.58-1.37,3.14-2.77,4.67-4.18"/>
    <g>
      <path class="cls-1" d="m78.77,65.42c-.77,102.63.23,204.67.69,307.12l-.69-307.12Z"/>
      <path d="m78.77,65.42c-.77,102.63.23,204.67.69,307.12l-.69-307.12Z"/>
    </g>
    <g>
      <path class="cls-1" d="m79.51,386.46c-.01-4.64-.02-9.29-.04-13.92l.03,13.91s0,0,.01.01Z"/>
      <path d="m79.51,386.46c-.01-4.64-.02-9.29-.04-13.92l.03,13.91s0,0,.01.01Z"/>
    </g>
    <g>
      <path class="cls-1" d="m368.77,65.42c-.72,82.34.12,165.21.55,247.94l-.55-247.94Z"/>
      <path d="m368.77,65.42c-.72,82.34.12,165.21.55,247.94l-.55-247.94Z"/>
    </g>
    <g>
      <path class="cls-1" d="m369.53,386.28c0-24.29-.07-48.59-.2-72.92l.16,72.96s.02-.02.04-.04Z"/>
      <path d="m369.53,386.28c0-24.29-.07-48.59-.2-72.92l.16,72.96s.02-.02.04-.04Z"/>
    </g>
    <line class="cls-1" x1="79.27" y1="75.92" x2="369.27" y2="288.92"/>
    <line class="cls-1" x1="369.27" y1="76.92" x2="79.27" y2="288.92"/>
  </g>
</svg>