<?xml version="1.0" encoding="UTF-8"?>
<svg id="Capa_2" data-name="Capa 2" xmlns="http://www.w3.org/2000/svg" viewBox="0 0 695.4 691.6">
  <defs>
    <style>
      .cls-1 {
        fill: none;
        stroke: #000;
        stroke-miterlimit: 10;
        stroke-width: 4px;
      }
    </style>
  </defs>
  <g id="Capa_1-2" data-name="Capa 1">
    <polygon class="cls-1" points="347.7 2.62 410.18 55.69 488.84 32.62 524.33 106.51 605.57 117.43 607.94 199.37 677.71 242.39 646.55 318.21 692.79 385.89 633.49 442.48 648.21 523.11 571.01 550.69 551.66 630.34 469.93 624.13 419.85 689.03 347.7 650.11 275.56 689.03 225.48 624.13 143.74 630.34 124.39 550.69 47.2 523.11 61.91 442.48 2.61 385.89 48.85 318.21 17.69 242.39 87.46 199.37 89.84 117.43 171.07 106.51 206.57 32.62 285.23 55.69 347.7 2.62"/>
  </g>
</svg>